# xmcd
#
# Track frame offsets: 
#        150
#        19855
#        40317
#        44530
#        67156
#        70245
#        87696
#        106079
#        130106
#        143563
#        160179
#        181916
#        202131
#        225533
#
# Disc length: 3156 seconds
#
# Revision: 8
# Processed by: cddbd v1.5.2PL0 Copyright (c) Steve Scherf et al.
# Submitted via: ExactAudioCopyFreeDBPlugin 1.0
#
DISCID=c70c520e
DTITLE=Vibe - Re Fill
DYEAR=2006
DGENRE=R&B
TTITLE0=한숨만¸
TTITLE1=그남자 그여자 (feat 장혜진)
TTITLE2=어쩌면
TTITLE3=REFILL
TTITLE4=BROKENHEARTED  (feat. j1 of 4mem)
TTITLE5=가지말아요 (feat 전인권)
TTITLE6=술이야
TTITLE7=정녕
TTITLE8=권태기 (feat 하림, 조PD)
TTITLE9=GOOD BYE
TTITLE10=I'M MISSING YOU
TTITLE11=속도 모르고
TTITLE12=바래다주는 길
TTITLE13=우리가 다시 만날 날 (piano 이루마)
EXTD=Re fill YEAR: 2006
EXTT0=
EXTT1=
EXTT2=
EXTT3=
EXTT4=
EXTT5=
EXTT6=
EXTT7=
EXTT8=
EXTT9=
EXTT10=
EXTT11=
EXTT12=
EXTT13=
PLAYORDER=
